<svg width="32" height="33" viewBox="0 0 32 33" fill="none" xmlns="http://www.w3.org/2000/svg">
    <path fill-rule="evenodd" clip-rule="evenodd" d="M18.3796 28.7756C19.1544 27.4337 20.4639 26.5154 21.8718 25.8681C26.532 23.7253 29.7677 19.0157 29.7677 13.5503C29.7677 6.06669 23.701 0 16.2173 0C8.73368 0 2.66699 6.06669 2.66699 13.5503C2.66699 19.0158 5.90276 23.7255 10.5631 25.8682C11.971 26.5155 13.2805 27.4338 14.0553 28.7757L15.9057 31.9807C16.0442 32.2207 16.3906 32.2207 16.5292 31.9807L18.3796 28.7756Z" fill="url(#paint0_linear_3530_1509)"/>
    <g clip-path="url(#clip0_3530_1509)">
        <path d="M24.0182 12.5617V12.5127L24.0089 12.4645C23.975 12.2935 23.8711 11.8709 23.6409 11.6451C23.4472 11.4553 23.1548 11.3584 22.7723 11.3584C22.5817 11.3584 22.4135 11.3821 22.3362 11.3952C22.3105 11.3964 22.2849 11.3988 22.2594 11.4024C22.0847 10.6231 21.8009 9.48137 21.5259 8.9114C21.0184 7.85999 20.3378 7.65403 19.7394 7.54363C19.2525 7.45444 18.7607 7.3935 18.2667 7.36111V5.96001C18.2669 5.89893 18.2429 5.84026 18.2 5.79684C18.1571 5.75341 18.0987 5.72875 18.0376 5.72827H14.3761C14.2506 5.72827 14.1473 5.83242 14.1473 5.96001V7.36111C13.6533 7.39353 13.1615 7.45447 12.6746 7.54363C12.0765 7.65403 11.3956 7.85999 10.8884 8.9114C10.6132 9.48137 10.3296 10.6231 10.1549 11.4024C10.1294 11.3987 10.1038 11.3963 10.0781 11.3952C10.0007 11.3821 9.83254 11.3584 9.64194 11.3584C9.25918 11.3584 8.96704 11.455 8.77306 11.6456C8.54314 11.8709 8.43925 12.2935 8.4054 12.4648L8.39551 12.5127V12.5617C8.39606 12.8122 8.49597 13.0522 8.67331 13.2292C8.85065 13.4062 9.09094 13.5055 9.34146 13.5055H9.53545C9.2998 13.88 8.96131 14.4874 8.72463 15.2115C8.57074 15.6839 8.6236 16.4603 8.69078 17.2149L8.70171 17.3404C8.77905 18.2335 9.30163 18.541 9.79921 18.6269V19.846C9.79921 20.1009 10.0054 20.3095 10.2567 20.3095H12.0874C12.3392 20.3095 12.5452 20.1009 12.5452 19.8463V18.8521C13.4127 18.9076 14.5365 18.9503 16.2504 18.9503C17.9262 18.9503 19.025 18.9099 19.8683 18.8563V19.8465C19.8683 20.1014 20.0745 20.3097 20.3261 20.3097H22.1568C22.4086 20.3097 22.6145 20.1012 22.6145 19.8465V18.6272C23.1129 18.5405 23.636 18.2324 23.712 17.3409L23.7232 17.2154C23.7904 16.4608 23.8433 15.6844 23.6891 15.2123C23.4527 14.4882 23.1142 13.8805 22.8786 13.506H23.0723C23.3228 13.5058 23.5631 13.4063 23.7404 13.2293C23.9177 13.0523 24.0176 12.8122 24.0182 12.5617ZM17.5887 6.30761C17.5887 6.24382 17.6382 6.19175 17.6991 6.19175C17.7595 6.19175 17.809 6.24382 17.809 6.30761V7.00283C17.8097 7.03271 17.7985 7.06166 17.7779 7.08332C17.7573 7.10499 17.729 7.11762 17.6991 7.11843C17.6692 7.11762 17.6408 7.10501 17.6201 7.08336C17.5994 7.0617 17.5881 7.03276 17.5887 7.00283V6.30761ZM16.7117 6.55029L16.5584 6.29095C16.5261 6.23653 16.5511 6.19149 16.6141 6.19149H16.6373C16.7003 6.19149 16.7711 6.2295 16.7943 6.27611C16.8177 6.32298 16.8596 6.4063 16.8872 6.46228L16.9102 6.51488C16.9117 6.51488 16.932 6.46957 16.9549 6.41437L16.9794 6.36099L17.0109 6.29564C17.0274 6.26568 17.0512 6.2404 17.0801 6.22218C17.109 6.20396 17.1421 6.1934 17.1763 6.19149H17.1979C17.2606 6.19149 17.2856 6.23601 17.2526 6.29069L17.0984 6.5456C17.0821 6.57595 17.0736 6.60985 17.0736 6.64428C17.0736 6.67872 17.0821 6.71262 17.0984 6.74297L17.2664 7.02001C17.2994 7.07391 17.2749 7.11843 17.2119 7.11843H17.1875C17.1244 7.11843 17.0534 7.08068 17.0291 7.03459L16.9318 6.84816L16.8992 6.78463C16.8977 6.78463 16.876 6.83045 16.8513 6.88644L16.8214 6.95101L16.7909 7.01428C16.7747 7.04426 16.751 7.06957 16.7222 7.08781C16.6934 7.10604 16.6604 7.11659 16.6263 7.11843H16.6047C16.5417 7.11843 16.5167 7.07391 16.5493 7.01949L16.7115 6.7487C16.7275 6.71809 16.7359 6.68407 16.7359 6.64952C16.736 6.61498 16.7277 6.58094 16.7117 6.55029ZM15.4726 7.00829L15.6986 6.30163C15.71 6.27062 15.7303 6.24366 15.7569 6.22408C15.7836 6.2045 15.8153 6.19317 15.8483 6.19149H15.9074C15.9704 6.19149 16.0381 6.24122 16.0574 6.30163L16.2871 7.00829C16.3066 7.0687 16.2714 7.11843 16.2084 7.11843H16.2009C16.1679 7.11683 16.1361 7.10545 16.1096 7.08575C16.0831 7.06605 16.063 7.0389 16.0519 7.00777L16.0465 6.99111C16.0354 6.96 16.0153 6.93287 15.9888 6.91317C15.9623 6.89348 15.9305 6.88209 15.8975 6.88045H15.8486C15.8158 6.88208 15.7842 6.89356 15.758 6.91339C15.7318 6.93323 15.7122 6.96049 15.7017 6.99163L15.6971 7.00751C15.6868 7.03867 15.6674 7.06599 15.6413 7.08584C15.6152 7.1057 15.5837 7.11716 15.551 7.11869C15.4885 7.11843 15.4531 7.0687 15.4726 7.00829ZM14.7193 6.19149H15.2359C15.2989 6.19149 15.3502 6.23106 15.3502 6.27949C15.3502 6.32844 15.2989 6.36776 15.2359 6.36776H15.2C15.137 6.36776 15.0857 6.41984 15.0857 6.48363V7.00257C15.0857 7.0661 15.0362 7.11817 14.9755 7.11817C14.9149 7.11817 14.8651 7.0661 14.8651 7.00257V6.48363C14.8653 6.45313 14.8533 6.42381 14.8319 6.4021C14.8105 6.38038 14.7813 6.36804 14.7508 6.36776H14.7193C14.6563 6.36776 14.605 6.32844 14.605 6.27949C14.605 6.23132 14.6563 6.19149 14.7193 6.19149ZM22.3648 13.009C22.3143 13.0953 22.271 13.1856 22.2352 13.279C21.93 12.9077 21.4769 12.6637 21.009 12.6637C20.2615 12.6637 19.76 13.286 19.8886 14.0539C20.017 14.8217 20.7273 15.444 21.4738 15.444C22.2214 15.444 22.7234 14.8217 22.5947 14.0539C22.5879 14.0159 22.5797 13.9782 22.57 13.9409C22.7783 14.2916 23.0371 14.7902 23.2259 15.3667C23.3728 15.8174 23.267 16.8173 23.2259 17.2977C23.2056 17.5351 23.1572 18.1103 22.3682 18.1593C20.8403 18.2538 19.9772 18.4561 16.2506 18.4561C12.5246 18.4561 11.5961 18.2522 10.0458 18.1593C9.25684 18.1124 9.20867 17.5354 9.1881 17.2977C9.14696 16.8173 9.04125 15.8174 9.1881 15.3667C9.37688 14.7902 9.63569 14.2916 9.844 13.9409C9.83443 13.9782 9.82618 14.0159 9.81926 14.0539C9.69063 14.8217 10.1924 15.444 10.9399 15.444C11.6864 15.444 12.397 14.8217 12.5254 14.0539C12.654 13.286 12.1523 12.6637 11.4047 12.6637C10.9371 12.6637 10.4837 12.908 10.1788 13.279C10.1431 13.1856 10.0996 13.0952 10.0489 13.009C10.0421 13.0095 10.0351 13.0113 10.0281 13.0113H9.34146C9.08994 13.0113 8.88372 12.809 8.88372 12.5617C8.88372 12.5617 8.96678 12.1432 9.11259 12.0005C9.2321 11.8831 9.449 11.8529 9.64168 11.8529C9.84868 11.8529 10.0278 11.8881 10.0278 11.8881C10.2463 11.8881 10.4298 12.0406 10.4749 12.2424C10.6952 11.1434 11.0425 9.7178 11.3266 9.12856C11.7177 8.318 12.1707 8.13886 12.7621 8.02976C13.5911 7.87666 14.4842 7.79802 16.2066 7.79802C17.929 7.79802 18.8226 7.87666 19.6514 8.02976C20.2427 8.13886 20.6958 8.31774 21.0869 9.12856C21.371 9.7178 21.7186 11.1434 21.9386 12.2424C21.962 12.1415 22.0189 12.0515 22.1001 11.9872C22.1812 11.9228 22.2818 11.8879 22.3854 11.8881C22.3854 11.8881 22.5648 11.8529 22.7718 11.8529C22.9645 11.8529 23.1814 11.8831 23.3006 12.0005C23.4467 12.1432 23.5295 12.5617 23.5295 12.5617C23.5295 12.8088 23.3235 13.0113 23.0718 13.0113H22.3857C22.3786 13.0113 22.3721 13.0095 22.3648 13.009ZM21.3967 14.9806C20.8989 14.9806 20.4253 14.5653 20.3399 14.0536C20.2539 13.542 20.5885 13.1267 21.0869 13.1267C21.5842 13.1267 22.0581 13.542 22.1438 14.0536C22.2294 14.5653 21.8951 14.9806 21.3967 14.9806ZM10.2702 14.0539C10.3556 13.5422 10.8293 13.1269 11.3271 13.1269C11.8255 13.1269 12.1598 13.5422 12.0741 14.0539C11.989 14.5655 11.5151 14.9808 11.0173 14.9808C10.5189 14.9806 10.1846 14.5653 10.2702 14.0539Z" fill="#35383F"/>
        <path d="M20.0979 8.81594C19.8604 8.65138 18.0635 8.3772 16.2075 8.3772C14.3516 8.3772 12.5549 8.65138 12.3172 8.81594C11.4147 9.44111 11.1729 12.3282 11.1729 12.3282C11.1729 12.3282 11.6374 12.5477 12.3172 12.5477C12.8609 12.5477 13.0038 12.1941 16.2075 12.1941C19.4112 12.1941 19.5544 12.5477 20.0979 12.5477C20.7777 12.5477 21.2422 12.3282 21.2422 12.3282C21.2422 12.3282 21.0006 9.44137 20.0979 8.81594ZM19.1389 16.9611C18.0127 16.5127 14.3385 16.4544 13.2738 16.9611C13.0754 17.0554 12.8703 17.5295 13.1171 17.5295H19.2959C19.5427 17.5293 19.3485 17.0447 19.1389 16.9611Z" fill="#35383F"/>
        <path d="M10.7146 17.2978C10.9674 17.2978 11.1723 17.0903 11.1723 16.8343C11.1723 16.5784 10.9674 16.3708 10.7146 16.3708C10.4618 16.3708 10.2568 16.5784 10.2568 16.8343C10.2568 17.0903 10.4618 17.2978 10.7146 17.2978Z" fill="#35383F"/>
        <path d="M21.6999 17.2978C21.9527 17.2978 22.1577 17.0903 22.1577 16.8343C22.1577 16.5784 21.9527 16.3708 21.6999 16.3708C21.4471 16.3708 21.2422 16.5784 21.2422 16.8343C21.2422 17.0903 21.4471 17.2978 21.6999 17.2978Z" fill="#35383F"/>
        <path d="M17.9494 15.596C18.3595 15.596 18.5894 15.2731 18.4597 14.8786L18.4337 14.801C18.304 14.4065 17.8559 13.9097 17.4513 13.8316C16.8388 13.7124 15.5763 13.7124 14.9633 13.8316C14.559 13.9097 14.1106 14.4065 13.9809 14.801L13.9551 14.8786C13.8255 15.2731 14.0554 15.596 14.4655 15.596H17.9494ZM14.2806 14.9903L14.3072 14.9109C14.4092 14.6008 14.78 14.2214 15.0284 14.173C15.2964 14.1209 15.7369 14.0899 16.2077 14.0899C16.6784 14.0899 17.1195 14.1209 17.3869 14.173C17.6356 14.2214 18.0064 14.6008 18.109 14.9125L18.1342 14.9882C18.161 15.0695 18.159 15.1398 18.1288 15.1817C18.0986 15.2236 18.0332 15.2483 17.9496 15.2483H14.4657C14.3819 15.2483 14.3168 15.2236 14.2866 15.1817C14.2564 15.1398 14.2546 15.0695 14.2806 14.9903Z" fill="#35383F"/>
        <path d="M17.456 14.3217H14.9579C14.8678 14.367 14.7637 14.4509 14.6686 14.5535H17.7453C17.6502 14.4509 17.5461 14.367 17.456 14.3217ZM17.9999 14.9495C17.9793 14.892 17.9528 14.8369 17.9208 14.7849H14.4931C14.4614 14.8363 14.4352 14.8908 14.4148 14.9477L14.3916 15.0167H18.0221L17.9999 14.9495ZM15.8729 6.72387C15.932 6.72387 15.9666 6.67961 15.9502 6.62545C15.9289 6.55563 15.9083 6.48558 15.8885 6.41532C15.8885 6.41532 15.8851 6.40334 15.8711 6.34814C15.8695 6.34814 15.8562 6.39892 15.8422 6.46089C15.8422 6.46089 15.8393 6.47339 15.8239 6.52702L15.7984 6.61295C15.7802 6.67388 15.8138 6.72387 15.8729 6.72387Z" fill="#35383F"/>
    </g>
    <defs>
        <linearGradient id="paint0_linear_3530_1509" x1="29.7677" y1="32.1607" x2="-3.22136" y2="24.1007" gradientUnits="userSpaceOnUse">
            <stop stop-color="#22BB9C"/>
            <stop offset="1" stop-color="#35DEBC"/>
        </linearGradient>
        <clipPath id="clip0_3530_1509">
            <rect width="16.6642" height="16.6642" fill="white" transform="translate(7.875 4.16602)"/>
        </clipPath>
    </defs>
</svg>
